<?xml version="1.0" standalone="no"?><!DOCTYPE svg PUBLIC "-//W3C//DTD SVG 1.1//EN" "http://www.w3.org/Graphics/SVG/1.1/DTD/svg11.dtd"><svg t="1722610376229" class="icon" viewBox="0 0 1024 1024" version="1.1" xmlns="http://www.w3.org/2000/svg" p-id="4279" xmlns:xlink="http://www.w3.org/1999/xlink" width="200" height="200"><path d="M689.11 121.72c-70.21 0-133.67 28.85-179.2 75.32-45.53-46.48-108.99-75.32-179.2-75.32-138.56 0-250.89 112.32-250.89 250.87 0 286.73 430.08 537.6 430.08 537.6S940 659.33 940 372.6c0-138.55-112.32-250.88-250.89-250.88z" fill="#EC87C0" p-id="4280"></path><path d="M689.11 121.72c-12.17 0-24.12 0.88-35.83 2.56 121.58 17.39 215.04 121.93 215.04 248.31 0 235.84-290.97 447.42-394.25 515.1 22.29 14.61 35.84 22.51 35.84 22.51S940 659.33 940 372.6c0-138.55-112.32-250.88-250.89-250.88z" fill="#FFFFFF" opacity=".2" p-id="4281"></path></svg>