<?xml version="1.0" standalone="no"?><!DOCTYPE svg PUBLIC "-//W3C//DTD SVG 1.1//EN" "http://www.w3.org/Graphics/SVG/1.1/DTD/svg11.dtd"><svg t="1722511099837" class="icon" viewBox="0 0 1024 1024" version="1.1" xmlns="http://www.w3.org/2000/svg" p-id="8164" xmlns:xlink="http://www.w3.org/1999/xlink" width="200" height="200"><path d="M128 384h640v256H128z m0 0" p-id="8165"></path><path d="M128 256C57.309 256 0 313.309 0 384v256c0 70.691 57.309 128 128 128h640c70.691 0 128-57.309 128-128V384c0-70.691-57.309-128-128-128z m640 64c35.348 0 64 28.652 64 64v256c0 35.348-28.652 64-64 64H128c-35.348 0-64-28.652-64-64V384c0-35.348 28.652-64 64-64z m256 192c0 53.02-42.98 96-96 96V416c53.02 0 96 42.98 96 96z m0 0" p-id="8166"></path></svg>