<?xml version="1.0" standalone="no"?><!DOCTYPE svg PUBLIC "-//W3C//DTD SVG 1.1//EN" "http://www.w3.org/Graphics/SVG/1.1/DTD/svg11.dtd"><svg t="1707810528788" class="icon" viewBox="0 0 1024 1024" version="1.1" xmlns="http://www.w3.org/2000/svg" p-id="55200" xmlns:xlink="http://www.w3.org/1999/xlink" width="512" height="512"><path d="M742.634667 17.770667H281.365333C136.021333 17.770667 17.770667 135.786667 17.770667 281.344v461.290667c0 145.344 118.016 263.552 263.594666 263.552H742.613333c145.344 0 263.573333-117.994667 263.573334-263.552V281.365333C1006.208 136.021333 888.213333 17.770667 742.634667 17.770667zM473.642667 296.917333c0 11.157333-9.749333 20.885333-20.885334 20.885334h-36.202666c-69.610667 0-137.813333 69.610667-137.813334 139.221333v41.770667h174.037334c11.136 0 20.885333 9.749333 20.885333 20.864v236.714666c0 11.114667-9.749333 20.885333-20.885333 20.885334H216.085333c-11.136 0-20.885333-9.770667-20.885333-20.885334V457.024c0-125.290667 96.064-222.741333 221.354667-222.741333h36.202666c11.136 0 20.885333 9.749333 20.885334 20.885333v41.749333z m345.258666 0c0 11.157333-9.706667 20.885333-20.842666 20.885334h-36.224c-69.589333 0-137.813333 69.610667-137.813334 139.221333v41.770667h174.037334c11.114667 0 20.842667 9.749333 20.842666 20.864v236.714666c0 11.114667-9.706667 20.885333-20.842666 20.885334H561.344c-11.114667 0-20.885333-9.770667-20.885333-20.885334V457.024c0-125.290667 96.042667-222.741333 221.354666-222.741333h36.224c11.114667 0 20.842667 9.749333 20.842667 20.885333v41.749333z" p-id="55201"></path></svg>