<?xml version="1.0" standalone="no"?><!DOCTYPE svg PUBLIC "-//W3C//DTD SVG 1.1//EN" "http://www.w3.org/Graphics/SVG/1.1/DTD/svg11.dtd"><svg t="1707794914803" class="icon" viewBox="0 0 1024 1024" version="1.1" xmlns="http://www.w3.org/2000/svg" p-id="7025" xmlns:xlink="http://www.w3.org/1999/xlink" width="512" height="512"><path d="M838.4 325.12 554.24 479.36C528 493.44 512 521.6 512 552.96l0 298.24c0 32 31.36 53.12 57.6 38.4l284.16-154.24c25.6-14.08 42.24-42.24 42.24-73.6L896 364.16C896 331.52 864.64 311.04 838.4 325.12zM405.76 478.72 121.6 325.12C95.36 311.04 64 331.52 64 363.52l0 299.52c0 31.36 16 59.52 42.24 73.6l284.16 153.6C416.64 904.32 448 883.2 448 851.2L448 552.32C448 520.96 432 492.8 405.76 478.72zM812.16 255.36c13.44-7.04 19.84-19.2 18.56-30.72 1.28-12.16-5.12-23.68-18.56-30.72L522.88 42.88c-12.8-7.04-28.16-10.24-43.52-10.24-15.36 0-30.72 3.2-43.52 10.24L146.56 193.28C133.12 200.32 127.36 212.48 128 224 127.36 236.16 133.12 248.32 146.56 255.36l289.28 150.4c12.8 7.04 28.16 10.24 43.52 10.24 15.36 0 30.72-3.2 43.52-10.24L812.16 255.36z" p-id="7026"></path></svg>