<?xml version="1.0" standalone="no"?><!DOCTYPE svg PUBLIC "-//W3C//DTD SVG 1.1//EN" "http://www.w3.org/Graphics/SVG/1.1/DTD/svg11.dtd"><svg t="1707794850882" class="icon" viewBox="0 0 1024 1024" version="1.1" xmlns="http://www.w3.org/2000/svg" p-id="3435" xmlns:xlink="http://www.w3.org/1999/xlink" width="512" height="512"><path d="M515.700778 0c142.711252 0 260.342177 80.359417 307.199116 212.461552 2.326561 6.747027 6.886621 20.334143 13.587116 40.714817a23.26561 23.26561 0 0 1-11.120961 27.779139l-37.224976 19.868831a23.26561 23.26561 0 0 1-32.525323-11.725868 4513.063049 4513.063049 0 0 1-20.613331-51.044748c-35.08454-90.735879-116.793363-144.432908-219.301641-144.432908-131.822947 0-238.658629 110.046336-238.658628 245.777905 0 33.502479 6.514371 65.934739 18.891675 95.993908 8.37562 20.380674 19.310456 42.250348 34.665759 69.936424l4.513529 8.096432c9.16665 16.285927 38.574382 67.004957 47.927156 83.570071l1.070218 1.861249c43.692816 77.521013 72.123391 139.17488 92.317941 208.227211l1.209812 4.18781c26.662389 93.202034 63.608178 129.822104 142.059815 116.095394 53.417841-9.352775 80.405949-42.436473 84.547228-111.163085 0.139594-2.233499 0-6.560902-0.465313-13.028742a27.918732 27.918732 0 0 1 21.73008-29.268137l34.898415-7.817245a27.918732 27.918732 0 0 1 33.874729 24.42889c1.023687 9.864619 1.395937 17.961051 1.023687 24.242766-5.630278 114.513333-60.118337 187.334693-160.393117 204.876963-71.611548 12.563429-130.008229-4.420466-173.375326-47.368782-32.571854-32.246136-53.743559-75.101389-70.122549-131.031917l-0.977156-3.44331c-17.495739-61.048961-42.669129-116.467644-82.499853-187.520817l-6.049059-10.702181c-11.632805-20.380674-39.086225-67.795988-46.53122-81.196979l-4.001685-7.119277a763.018949 763.018949 0 0 1-39.086225-79.289199A347.122903 347.122903 0 0 1 186.120145 339.39872C186.120145 151.970965 333.670645 0 515.700778 0z m66.539645 242.334595c33.92126 11.911992 66.167395 50.160655 81.662292 88.641974l1.116749 2.745342a23.26561 23.26561 0 0 1-9.864619 29.314669l-34.665759 19.775769a23.26561 23.26561 0 0 1-32.385729-9.864619 46.298564 46.298564 0 0 0-2.047374-3.81556c-4.56006-7.305402-11.725867-29.547325-33.17676-38.155601-9.492369-3.81556-22.939892-2.233499-33.828197 2.186968-16.425521 6.700496-27.360357 25.219921-24.80114 46.15897 1.628593 13.168335 6.049059 22.753767 16.472052 35.689446l1.256343 1.582062c3.396779 4.094747 7.25887 8.468682 12.656492 14.238553l22.89336 24.289297c19.0778 20.613331 34.479634 39.179287 50.114124 61.421211 15.169178 21.590486 27.82567 49.927999 38.481319 85.198664l3.908623 13.587116a29.221606 29.221606 0 0 1-21.311299 36.154758l-29.966106 7.258871a31.175918 31.175918 0 0 1-35.735977-17.54227l-1.53553-4.234341c-8.468682-29.779981-17.821457-51.742717-27.546483-65.609021a458.704769 458.704769 0 0 0-39.086225-48.252875l-6.467839-6.886621-16.472052-17.495739a432.461161 432.461161 0 0 1-19.263925-21.543955c-21.962736-26.70892-34.479634-52.719873-38.620913-86.082757-7.817245-63.887365 26.988108-122.702828 81.522698-144.944751 29.640387-12.098117 64.724927-14.983053 96.645344-3.81556z" fill="#191F24" p-id="3436"></path></svg>