<?xml version="1.0" standalone="no"?><!DOCTYPE svg PUBLIC "-//W3C//DTD SVG 1.1//EN" "http://www.w3.org/Graphics/SVG/1.1/DTD/svg11.dtd"><svg t="1707810404846" class="icon" viewBox="0 0 1024 1024" version="1.1" xmlns="http://www.w3.org/2000/svg" p-id="44059" xmlns:xlink="http://www.w3.org/1999/xlink" width="512" height="512"><path d="M930.909091 0a93.090909 93.090909 0 0 1 93.090909 93.090909v837.818182a93.090909 93.090909 0 0 1-93.090909 93.090909H93.090909a93.090909 93.090909 0 0 1-93.090909-93.090909V93.090909a93.090909 93.090909 0 0 1 93.090909-93.090909h837.818182z m-444.322909 203.869091l-61.905455 22.807273c24.762182 28.020364 45.614545 57.344 62.557091 88.622545H224.628364V376.552727h99.700363a583.214545 583.214545 0 0 0 149.876364 252.834909c-69.073455 59.298909-155.741091 102.306909-261.306182 129.675637l33.233455 54.737454c107.52-31.278545 198.097455-79.499636 271.732363-144.663272 69.073455 58.647273 156.392727 107.52 261.306182 146.618181l34.536727-52.130909c-100.352-36.491636-185.064727-82.757818-252.834909-138.146909 61.253818-67.118545 107.52-149.876364 138.798546-248.925091h99.700363V315.298909h-246.970181a636.648727 636.648727 0 0 0-65.815273-111.429818z m149.224727 172.683636c-26.065455 82.106182-65.815273 152.482909-118.597818 210.478546a525.591273 525.591273 0 0 1-133.585455-210.478546h252.183273z" fill="#262A30" p-id="44060"></path></svg>