<?xml version="1.0" standalone="no"?><!DOCTYPE svg PUBLIC "-//W3C//DTD SVG 1.1//EN" "http://www.w3.org/Graphics/SVG/1.1/DTD/svg11.dtd"><svg fill="currentColor" t="1706499445325" class="icon" viewBox="0 0 1024 1024" version="1.1" xmlns="http://www.w3.org/2000/svg" p-id="4175" xmlns:xlink="http://www.w3.org/1999/xlink" width="200" height="200"><path d="M420.396699 973.170335a30.197766 30.197766 0 0 1-12.310374-2.618641c-12.310374-5.473665-19.543102-18.406209-17.744129-31.764448l36.871769-275.325649-247.198032-78.06189a30.335912 30.335912 0 0 1-20.036335-20.530592 30.364565 30.364565 0 0 1 6.027273-28.039613l95.005794-112.029516c10.809183-12.785188 29.996175-14.375405 42.760897-3.517104 12.785188 10.838859 14.365172 29.996175 3.517103 42.780339l-65.464991 77.202313 227.990575 71.995731c14.069437 4.436032 22.922059 18.346857 20.946054 32.969902L464.244346 844.176448l91.113138-107.464547c10.848069-12.774955 30.015617-14.375405 42.780339-3.517103 12.785188 10.837836 14.365172 29.995151 3.536546 42.780339L443.574584 962.450179a30.389124 30.389124 0 0 1-23.177885 10.720156z m292.76381-345.306491c-6.935969 0-13.910824-2.361791-19.602453-7.203052-12.785188-10.837836-14.365172-29.985942-3.536547-42.780339l58.904575-69.466118-219.434711-68.932975c-14.18814-4.455475-23.060205-18.514679-20.965498-33.235962l30.686907-215.670991-108.560508 128.035048c-10.848069 12.764722-30.03506 14.34573-42.780339 3.517103-12.785188-10.838859-14.365172-29.996175-3.536546-42.780339L560.909943 71.115688c8.733918-10.314926 23.23826-13.604856 35.607986-8.052397 12.329816 5.542226 19.503193 18.574031 17.605983 31.961946l-41.871643 294.266024 238.483556 74.910106a30.353308 30.353308 0 0 1 20.056802 20.52036c2.845815 9.771551 0.573051 20.303418-5.987365 28.069289l-88.465844 104.352673c-6.006807 7.074116-14.563694 10.720156-23.178909 10.720155zM799.098787 877.392968c-8.022721 0-16.045441-3.171226-22.01234-9.45535L157.412123 215.383442c-11.539824-12.152784-11.045567-31.359218 1.106194-42.909275 12.112875-11.539824 31.359218-11.066033 42.918485 1.116427L821.111127 826.145793c11.539824 12.152784 11.045567 31.359218-1.106194 42.909276-5.868661 5.571902-13.397125 8.337899-20.906146 8.337899z" fill="#333333" p-id="4176"></path></svg>