<?xml version="1.0" standalone="no"?><!DOCTYPE svg PUBLIC "-//W3C//DTD SVG 1.1//EN" "http://www.w3.org/Graphics/SVG/1.1/DTD/svg11.dtd"><svg t="1705495366920" fill="currentColor" class="icon" viewBox="0 0 1024 1024" version="1.1" xmlns="http://www.w3.org/2000/svg" p-id="4522" xmlns:xlink="http://www.w3.org/1999/xlink" width="200" height="200"><path d="M883.3 288.4L670.4 636.5c-45 73.5-166.3 84.4-271 24.3-104.8-60.1-153.2-168.4-108.2-241.9L504.1 70.8c45-73.5 166.4-84.4 271-24.3 104.8 60 153.3 168.4 108.2 241.9z m-531.5 464S507.9 861 706.1 720.2c59.8-61.2 110.7-139.4 110.7-139.4l55.4 32.2S767.4 840.9 506.8 859.6c-66 4.7-121.7-21.5-121.7-21.5l-77.5 107.2L196.9 881l66.4-107.2S129.4 687.5 130.4 495C131 368 219 237.6 219 237.6l55.4 42.9s-65.1 84-77.5 225.2C184.5 647 351.8 752.4 351.8 752.4z m-166 268.1V913.2l99.7 53.6-99.7 53.7z m0 0" p-id="4523"></path></svg>