<?xml version="1.0" standalone="no"?><!DOCTYPE svg PUBLIC "-//W3C//DTD SVG 1.1//EN" "http://www.w3.org/Graphics/SVG/1.1/DTD/svg11.dtd"><svg t="1708327709020" class="icon" viewBox="0 0 1024 1024" version="1.1" xmlns="http://www.w3.org/2000/svg" p-id="5596" xmlns:xlink="http://www.w3.org/1999/xlink" width="512" height="512"><path d="M174.5 624.5c20.503125 0 37.1634375 16.455 37.4953125 36.8803125L212 662v150h150c20.503125 0 37.1634375 16.455 37.4953125 36.8803125L399.5 849.5c0 20.503125-16.455 37.1634375-36.8803125 37.4953125L362 887H174.5c-20.503125 0-37.1634375-16.455-37.4953125-36.8803125L137 849.5V662c0-20.7103125 16.7896875-37.5 37.5-37.5zM174.5 399.5c20.503125 0 37.1634375-16.455 37.4953125-36.8803125L212 362V212h150c20.503125 0 37.1634375-16.455 37.4953125-36.8803125L399.5 174.5c0-20.503125-16.455-37.1634375-36.8803125-37.4953125L362 137H174.5c-20.503125 0-37.1634375 16.455-37.4953125 36.8803125L137 174.5v187.5c0 20.7103125 16.7896875 37.5 37.5 37.5zM849.5 624.5c-20.503125 0-37.1634375 16.455-37.4953125 36.8803125L812 662v150H662c-20.503125 0-37.1634375 16.455-37.4953125 36.8803125L624.5 849.5c0 20.503125 16.455 37.1634375 36.8803125 37.4953125L662 887h187.5c20.503125 0 37.1634375-16.455 37.4953125-36.8803125L887 849.5V662c0-20.7103125-16.7896875-37.5-37.5-37.5zM849.5 399.5c-20.503125 0-37.1634375-16.455-37.4953125-36.8803125L812 362V212H662c-20.503125 0-37.1634375-16.455-37.4953125-36.8803125L624.5 174.5c0-20.503125 16.455-37.1634375 36.8803125-37.4953125L662 137h187.5c20.503125 0 37.1634375 16.455 37.4953125 36.8803125L887 174.5v187.5c0 20.7103125-16.7896875 37.5-37.5 37.5zM317.7640625 537.363125c-14.73-14.559375-14.8696875-38.3015625-0.3121875-53.0325 14.413125-14.5828125 37.828125-14.8659375 52.588125-0.744375l0.444375 0.4321875 113.386875 112.059375c14.73 14.559375 14.86875 38.3025 0.3121875 53.0334375-14.413125 14.5828125-37.828125 14.865-52.588125 0.7434375l-0.444375-0.43125-113.386875-112.059375z" fill="#000000" p-id="5597"></path><path d="M652.259375 373.98125c14.6015625-14.686875 38.345625-14.758125 53.034375-0.1575 14.540625 14.4553125 14.75625 37.87125 0.590625 52.59l-0.433125 0.4434375-221.7984375 223.125c-14.6015625 14.6878125-38.3446875 14.7590625-53.0334375 0.1575-14.540625-14.454375-14.75625-37.8703125-0.590625-52.5890625l0.433125-0.4434375 221.7984375-223.125z" fill="#000000" p-id="5598"></path></svg>