<?xml version="1.0" standalone="no"?><!DOCTYPE svg PUBLIC "-//W3C//DTD SVG 1.1//EN" "http://www.w3.org/Graphics/SVG/1.1/DTD/svg11.dtd"><svg t="1722907295467" class="icon" viewBox="0 0 1024 1024" version="1.1" xmlns="http://www.w3.org/2000/svg" p-id="5433" xmlns:xlink="http://www.w3.org/1999/xlink" width="200" height="200"><path d="M769.323 708.992l182.741 182.699-60.373 60.373-182.699-182.741a382.293 382.293 0 0 1-239.659 84.01c-211.968 0-384-172.032-384-384s172.032-384 384-384 384 172.032 384 384a382.293 382.293 0 0 1-84.01 239.659z m-85.59-31.659a297.685 297.685 0 0 0 84.267-208c0-165.034-133.675-298.666-298.667-298.666-165.034 0-298.666 133.632-298.666 298.666C170.667 634.325 304.299 768 469.333 768a297.685 297.685 0 0 0 208-84.267l6.4-6.4z" fill="#CDCDCD" p-id="5434"></path></svg>