<?xml version="1.0" standalone="no"?><!DOCTYPE svg PUBLIC "-//W3C//DTD SVG 1.1//EN" "http://www.w3.org/Graphics/SVG/1.1/DTD/svg11.dtd"><svg t="1722434697993" class="icon" viewBox="0 0 1024 1024" version="1.1" xmlns="http://www.w3.org/2000/svg" p-id="4350" xmlns:xlink="http://www.w3.org/1999/xlink" width="200" height="200"><path d="M748.251429 159.451429c119.954286 0 217.965714 105.325714 217.965714 225.28 0 75.337143-37.302857 135.314286-75.337143 180.662857-37.302857 45.348571-89.965714 105.325714-165.302857 172.617143-47.542857 42.422857-119.222857 100.205714-165.302857 137.508571-26.331429 21.211429-64.365714 21.211429-91.428572 0.731429-85.577143-67.291429-269.165714-212.845714-337.188571-303.542858C94.354286 520.045714 57.051429 467.382857 57.051429 384.731429c0-128 98.011429-225.28 217.965714-225.28 67.291429 0 128 29.988571 165.302857 82.651428l10.24 12.434286c29.988571 36.571429 84.845714 36.571429 114.834286 0l10.24-12.434286c44.617143-52.662857 104.594286-82.651429 172.617143-82.651428z m0 0" fill="#E3E4E4" p-id="4351"></path></svg>