<?xml version="1.0" standalone="no"?><!DOCTYPE svg PUBLIC "-//W3C//DTD SVG 1.1//EN" "http://www.w3.org/Graphics/SVG/1.1/DTD/svg11.dtd"><svg t="1722603323976" class="icon" viewBox="0 0 1024 1024" version="1.1" xmlns="http://www.w3.org/2000/svg" p-id="10578" xmlns:xlink="http://www.w3.org/1999/xlink" width="200" height="200"><path d="M320.1 272H831c8.8 0 16-7.2 16-16s-7.2-16-16-16H320.1c-8.8 0-16 7.2-16 16s7.1 16 16 16zM192 272h64c8.8 0 16-7.2 16-16s-7.2-16-16-16h-64c-8.8 0-16 7.2-16 16s7.2 16 16 16zM831 432H384.1c-8.8 0-16 7.2-16 16s7.2 16 16 16H831c8.8 0 16-7.2 16-16s-7.2-16-16-16zM192 464h127.3c8.8 0 16-7.2 16-16s-7.2-16-16-16H192c-8.8 0-16 7.2-16 16s7.2 16 16 16zM831 624H448.1c-8.8 0-16 7.2-16 16s7.2 16 16 16H831c8.8 0 16-7.2 16-16s-7.2-16-16-16zM384 624H192c-8.8 0-16 7.2-16 16s7.2 16 16 16h192c8.8 0 16-7.2 16-16s-7.2-16-16-16z" p-id="10579"></path></svg>