<?xml version="1.0" standalone="no"?><!DOCTYPE svg PUBLIC "-//W3C//DTD SVG 1.1//EN" "http://www.w3.org/Graphics/SVG/1.1/DTD/svg11.dtd"><svg t="1722613178237" class="icon" viewBox="0 0 1297 1024" version="1.1" xmlns="http://www.w3.org/2000/svg" p-id="4243" xmlns:xlink="http://www.w3.org/1999/xlink" width="253.3203125" height="200"><path d="M1196.944475 2.311604H100.798099C45.218218 2.311604 0 47.529822 0 103.109703v817.780594c0 55.579881 45.218218 100.798099 100.798099 100.798099h1096.146376c55.579881 0 100.798099-45.218218 100.798099-100.798099V103.109703c0-55.579881-45.218218-100.798099-100.798099-100.798099z m55.691406 918.578693a55.762376 55.762376 0 0 1-55.691406 55.691406H100.798099a55.762376 55.762376 0 0 1-55.701545-55.691406V103.109703a55.762376 55.762376 0 0 1 55.701545-55.701545h1096.146376a55.762376 55.762376 0 0 1 55.691406 55.701545v817.780594z" fill="#000000" p-id="4244"></path><path d="M1110.492515 92.768317H187.260198a22.548277 22.548277 0 0 0-22.548277 22.558416v793.346534c0 12.450218 10.087921 22.548277 22.548277 22.548278h923.242455a22.548277 22.548277 0 0 0 22.548278-22.558416V115.336871a22.548277 22.548277 0 0 0-22.548278-22.548277z m-22.548277 793.346534H209.798337V137.885149h878.145901v748.229702zM102.602772 406.021069a22.548277 22.548277 0 0 0-22.548277 22.548278V595.440792a22.548277 22.548277 0 1 0 45.096555 0V428.559208a22.548277 22.548277 0 0 0-22.548278-22.548277z" fill="#000000" p-id="4245"></path><path d="M883.701861 497.390257L773.738455 368.082376a22.548277 22.548277 0 1 0-34.359762 29.219485l78.371485 92.149862h-55.95501a22.548277 22.548277 0 0 0-22.548277 22.548277v233.390891H558.505822V512a22.548277 22.548277 0 0 0-22.548277-22.548277h-55.95501L648.871287 290.876832l47.185109 55.488633a22.548277 22.548277 0 1 0 34.359762-29.219485l-64.370059-75.694891a22.568554 22.568554 0 0 0-34.359762 0L414.050851 497.400396a22.558416 22.558416 0 0 0 17.184951 37.15802h82.183604v233.380752c0 12.460356 10.087921 22.548277 22.548277 22.548278h225.827485a22.548277 22.548277 0 0 0 22.548278-22.548278v-233.390891h82.183604a22.548277 22.548277 0 0 0 17.18495-37.147881z" fill="#000000" p-id="4246"></path><path d="M1194.024554 511.989861m-22.548277 0a22.548277 22.548277 0 1 0 45.096555 0 22.548277 22.548277 0 1 0-45.096555 0Z" fill="#000000" p-id="4247"></path></svg>