<?xml version="1.0" standalone="no"?><!DOCTYPE svg PUBLIC "-//W3C//DTD SVG 1.1//EN" "http://www.w3.org/Graphics/SVG/1.1/DTD/svg11.dtd"><svg t="1722510966867" class="icon" viewBox="0 0 1024 1024" version="1.1" xmlns="http://www.w3.org/2000/svg" p-id="4307" xmlns:xlink="http://www.w3.org/1999/xlink" width="200" height="200"><path d="M192.437 816.222c-23.575 0-42.863-19.288-42.863-42.863v-64.294c0-23.575 19.288-42.863 42.863-42.863s42.863 19.288 42.863 42.863v64.294c0.005 23.57-19.284 42.863-42.863 42.863zM406.754 816.222c-23.575 0-42.862-19.288-42.862-42.863v-171.458c0-23.575 19.288-42.862 42.862-42.862s42.863 19.288 42.863 42.862v171.458c0.005 23.57-19.284 42.863-42.863 42.863zM621.080 816.222c-23.575 0-42.862-19.288-42.862-42.863v-342.912c0-23.575 19.288-42.862 42.862-42.862s42.862 19.288 42.862 42.862v342.908c0 23.575-19.288 42.867-42.862 42.867zM835.397 816.222c-23.575 0-42.863-19.288-42.863-42.863v-557.234c0-23.575 19.288-42.863 42.863-42.863s42.863 19.288 42.863 42.863v557.229c0 23.575-19.288 42.867-42.863 42.867z" fill="#2c2c2c" p-id="4308"></path></svg>